<svg width="681" height="174" viewBox="0 0 681 174" fill="none" xmlns="http://www.w3.org/2000/svg">
<path d="M64.5346 167.598C52.238 171.995 40.1771 174.637 27.5102 172.438C14.4882 170.176 5.36652 162.877 1.41241 150.314C-2.10856 139.127 1.17334 129.001 8.81286 120.294C10.3202 118.576 11.801 115.67 14.7374 117.612C18.061 119.809 15.0226 121.88 14.0019 123.789C12.2694 127.028 10.2472 130.142 9.70507 133.854C8.31347 143.383 13.2673 151.215 22.9846 154.59C35.1843 158.827 46.7932 156.044 57.7909 150.607C79.6174 139.816 95.1098 122.58 106.314 101.265C110.213 93.8475 113.312 86.0671 115.762 78.0534C117.32 72.9557 119.648 69.4091 125.908 69.6891C128.631 69.811 131.92 69.6979 134.12 66.4381C127.042 67.2973 119.886 67.7534 112.903 69.1021C99.4994 71.691 86.2488 75.0733 72.6192 76.4356C64.0268 77.2945 58.4759 74.0885 56.4399 66.2209C64.9099 67.8205 73.0151 66.9667 81.0766 65.1864C92.6034 62.6405 104.15 60.1787 115.72 57.8398C118.471 57.2837 120.278 56.3346 120.349 53.2438C120.502 46.5034 120.589 39.7795 118.396 33.2705C113.383 18.3851 102.419 10.8864 86.7641 11.6443C63.9815 12.7473 42.7681 27.8717 37.4463 46.5996C36.2646 50.7582 36.2231 54.5979 38.2971 58.4228C39.1508 59.9974 40.5094 61.6415 38.6683 63.3731C36.6638 65.2585 34.8324 63.7513 33.113 62.7991C25.9165 58.8134 22.7013 49.5341 25.2363 39.5983C26.8326 33.3416 29.8922 27.7578 34.8296 23.5362C52.1336 8.74014 71.7647 -0.154881 94.9874 0.00204236C119.952 0.170633 136.824 15.4997 139.564 40.3625C142.144 63.7718 135.8 85.29 125.634 105.839C112.226 132.941 92.7757 154.366 64.5346 167.598Z" fill="#4F4E4D"/>
<path d="M372.186 98.7568C362.676 111.701 355.586 125.4 350.162 140.058C345.846 151.722 343.932 152.449 330.822 149.621C329.448 146.936 331.136 144.543 331.801 142.104C336.202 125.971 340.769 109.881 345.115 93.733C347.1 86.3574 346.477 85.4963 339.453 83.4727C341.457 78.7966 350.234 74.0117 355.521 75.577C369.09 79.5945 360.8 90.2036 361.533 99.6806C366.399 93.1432 370.196 87.6631 375.086 83.1103C378.758 79.6919 382.795 77.0965 387.634 75.7885C396.735 73.3283 402.86 78.0861 403.054 87.5245C403.144 91.8628 402.095 95.9755 400.88 101.364C406.409 94.7849 410.13 88.2242 415.897 83.4012C419.532 80.3614 423.245 77.5788 427.861 76.1959C438.544 72.9956 446.577 79.9654 444.246 90.9495C442.131 100.914 439.219 110.708 436.672 120.581C435.398 125.517 434.164 130.463 432.893 135.399C432.093 138.51 432.017 141.466 434.504 143.952C437.723 147.169 435.719 149.092 432.669 150.313C427.901 152.221 423.015 152.575 418.733 149.156C414.382 145.682 413.713 140.793 415.02 135.782C417.695 125.523 420.7 115.35 423.547 105.136C424.203 102.782 424.961 100.431 425.326 98.0266C425.653 95.8696 426.217 93.2887 423.757 91.9604C421.305 90.636 419.456 92.3434 417.895 93.9899C415.933 96.0573 413.983 98.1679 412.299 100.459C403.54 112.368 396.523 125.18 391.645 139.208C387.353 151.551 385.083 152.513 371.505 149.548C369.989 147.313 371.566 145.277 372.123 143.236C375.722 130.063 379.558 116.954 382.97 103.734C383.969 99.8641 387.073 94.4207 382.391 92.0826C377.874 89.8262 375.299 95.4053 372.186 98.7568Z" fill="#4F4E4D"/>
<path d="M651.2 139.739C651.132 136.683 651.132 134.128 651.132 130.086C647.148 135.825 644.238 140.469 640.006 144.047C630.935 151.716 619.977 153.963 611.735 149.689C604.14 145.751 600.014 135.958 602.186 123.862C606.49 99.8869 623.433 79.8477 648.084 75.6136C659.136 73.7152 668.996 76.9069 678.488 82.3197C682.131 84.3969 680.424 86.7814 679.547 89.0584C674.393 102.434 670.801 116.229 668.204 130.299C667.91 131.894 667.683 133.533 667.703 135.148C667.779 141.266 670.529 143.156 676.392 141.22C677.904 140.721 679.401 140.177 681 139.62C681.009 145.707 676.347 150.099 668.8 151.434C660.035 152.984 654.417 149.397 651.2 139.739ZM659.644 84.7423C656.591 83.9431 653.641 84.353 650.63 85.193C633.448 89.9875 617.296 116.889 621.14 134.434C622.408 140.219 626.917 142.395 632.213 139.418C637.295 136.561 640.726 131.941 643.975 127.213C650.603 117.568 654.68 106.65 659.562 96.1322C661.39 92.1944 663.375 88.3973 668.595 87.6391C665.918 86.7805 663.241 85.9219 659.644 84.7423Z" fill="#4F4E4D"/>
<path d="M546.479 137.018C545.98 138.426 545.596 139.373 545.273 140.339C541.817 150.71 539.276 152.179 528.558 150.43C525.592 149.946 524.772 148.654 525.585 145.838C531.346 125.863 536.916 105.832 542.847 85.9074C545.475 77.077 552.006 74.5364 563.01 77.8312C560.007 88.5992 556.991 99.4111 553.657 111.368C562.697 104.073 568.787 95.8835 575.556 88.3302C580.481 82.8342 585.724 77.6704 592.911 75.1363C596.933 73.7182 600.712 74.2978 603.554 77.5501C606.542 80.9706 606.656 84.919 604.608 88.9632C602.688 92.7568 600.039 94.2118 596.29 91.4216C591.789 88.0712 587.995 89.3056 584.319 92.8222C579.001 97.9101 572.843 102.776 569.82 109.253C566.281 116.836 574.478 122.034 576.987 128.488C580.114 136.53 585.474 143.382 590.655 150.185C596.266 157.553 603.403 162.81 613.212 163.185C614.822 163.246 616.76 163.257 616.817 165.526C616.866 167.498 615.236 168.278 613.621 168.715C604.571 171.165 595.865 170.477 587.581 165.82C572.666 157.433 565.116 143.186 557.941 128.644C557.131 127.003 556.565 125.244 555.851 123.554C555.698 123.191 555.395 122.89 554.875 122.158C550.361 126.044 548.77 131.474 546.479 137.018Z" fill="#4F4E4D"/>
<path d="M472.54 77.3199C476.467 77.3157 479.853 77.3157 484.236 77.3157C482.052 83.8301 480.152 89.3465 478.354 94.8963C474.587 106.53 470.124 117.949 467.394 129.903C466.729 132.813 465.279 136.282 468.652 138.224C471.569 139.903 474.073 137.565 476.306 135.783C483.958 129.676 489.105 121.539 494.05 113.314C498.789 105.435 502.797 97.1713 505.955 88.5045C510.304 76.5688 514.643 74.5579 528.081 78.4636C525.579 86.5852 523.241 94.7667 520.531 102.823C517.137 112.909 515.188 123.35 512.617 133.636C511.678 137.397 511.45 140.941 515.273 144.094C518.639 146.871 515.469 149.137 512.962 150.423C503.663 155.192 494.166 148.855 494.882 138.322C495.155 134.311 496.077 130.344 496.844 125.464C493.133 127.271 491.907 130.186 490.222 132.48C486.329 137.78 482.129 142.709 476.765 146.595C473.231 149.154 469.43 150.998 465.102 151.693C455.128 153.294 448.125 147.506 449.394 137.538C451.908 117.797 458.137 98.995 465.436 80.5405C466.687 77.3778 469.272 77.2919 472.54 77.3199Z" fill="#4F4E4D"/>
<path d="M322.372 128.453C325.14 130.779 323.764 132.607 322.484 134.574C313.557 148.298 293.074 155.57 277.523 150.307C268.661 147.308 264.021 140.423 262.728 131.635C258.962 106.037 280.286 78.5185 306.057 75.2343C310.602 74.6551 315.07 75.202 319.351 76.6297C330.987 80.5105 333.515 96.4703 323.871 105.925C314.897 114.722 303.805 118.811 291.381 119.857C286.934 120.232 280.722 118.343 280.521 126.194C280.306 134.647 284.645 140.396 291.768 141.202C301.828 142.34 309.348 137.216 316.519 131.179C318.122 129.83 319.106 127.219 322.372 128.453ZM296.124 90.7168C289.903 96.7011 285.91 103.89 283.243 112.889C294.483 112.69 303.035 109.157 309.544 101.475C314.417 95.7239 315.291 88.9751 312.218 85.9262C308.998 82.7323 303.428 84.1228 297.185 89.6808C297.033 89.8159 296.892 89.9636 296.124 90.7168Z" fill="#4F4E4D"/>
<path d="M158.33 108.075C155.748 115.89 153.414 123.237 155.327 131.202C156.98 138.09 160.802 141.358 167.806 141.239C177.227 141.078 184.368 136.302 190.704 129.865C192.286 128.258 193.709 125.147 196.58 127.535C199.284 129.785 197.716 132.245 196.015 134.497C185.765 148.068 172.268 153.888 155.378 151.459C143.572 149.762 134.36 138.817 135.449 125.939C137.635 100.104 152.465 80.3561 178.92 75.3697C185.308 74.1658 191.544 75.1433 197.325 78.1861C201.585 80.4291 204.266 84.0046 204.251 88.9172C204.235 94.0134 200.873 96.9716 196.65 99.1236C194.733 100.101 192.777 100.552 190.881 99.1927C189.065 97.8896 189.573 96.1268 189.841 94.2265C191.067 85.5143 186.515 81.9715 178.318 85.3671C168.177 89.5683 162.9 98.2438 158.33 108.075Z" fill="#4F4E4D"/>
<path d="M230.683 87.7711C223.652 85.4519 216.445 87.6312 209.038 86.0042C211.251 79.8129 214.176 76.2225 221.031 76.3689C236.542 76.7002 252.064 76.442 267.582 76.4549C269.566 76.4565 271.649 76.1163 273.787 77.583C272.943 83.4499 269.932 86.4309 263.798 86.6837C249.839 87.2589 249.79 87.3606 245.948 100.738C241.84 115.041 237.658 129.329 233.908 143.728C232.61 148.713 230.426 151.198 225.098 150.498C221.706 150.052 218.206 151.069 214.012 149.818C219.65 129.192 225.258 108.674 230.683 87.7711Z" fill="#4F4E4D"/>
<path d="M425.329 60.1099C407.427 66.4593 389.838 69.658 371.744 62.9798C363.679 60.003 358.187 53.0621 357.903 45.2672C357.831 43.2974 357.437 40.7384 359.813 39.9669C362.434 39.1156 363.051 41.4663 363.86 43.4147C365.613 47.6379 369.602 48.9814 373.466 50.3001C387.779 55.1851 402.027 52.8026 416.295 49.8984C422.475 48.6406 428.547 46.7119 434.917 46.5162C442.695 46.2772 449.789 50.6667 451.441 56.6855C451.822 58.0738 452.271 59.5088 450.898 60.6186C449.982 61.3585 448.944 61.137 448.069 60.533C440.764 55.487 433.285 57.5589 425.329 60.1099Z" fill="#4F4E4D"/>
</svg>
